<svg width="61" height="19" viewBox="0 0 61 19" fill="none" xmlns="http://www.w3.org/2000/svg">
<path d="M0.439 15H1.807V0.419999H0.439V15ZM4.12323 15H5.43723V6.432C5.97723 5.874 6.62523 5.46 7.23723 5.46C7.90323 5.46 8.22723 5.856 8.22723 6.936V15H9.54123V6.648C9.54123 5.244 8.96523 4.434 7.93923 4.434C6.96723 4.434 6.10323 4.956 5.43723 5.676V4.596H4.12323V15ZM13.8645 15.162C15.4665 15.162 16.5285 14.28 16.5285 12.66C16.5285 11.22 15.6465 10.392 14.8005 9.636L13.3245 8.322C12.6765 7.728 12.4785 7.314 12.4785 6.684C12.4785 5.892 13.0005 5.424 13.8105 5.424C14.7105 5.424 15.2145 6.072 15.2865 7.476L16.2225 7.17C16.1325 5.568 15.3405 4.434 13.7565 4.434C12.2625 4.434 11.2725 5.28 11.2725 6.774C11.2725 7.89 11.7585 8.61 12.6945 9.384L14.1165 10.608C14.9985 11.346 15.3765 12.012 15.3765 12.696C15.3765 13.632 14.8545 14.172 13.9545 14.172C12.8925 14.172 12.2805 13.47 12.1365 11.868L11.0385 12.21C11.1825 14.01 12.2085 15.162 13.8645 15.162ZM20.4935 15.126C20.8535 15.126 21.2315 15.09 21.6095 15.018V14.01C21.3575 14.064 21.0695 14.1 20.8535 14.1C20.0795 14.1 19.9355 13.722 19.9355 12.714V5.46H21.6635V4.596H19.9355V1.374H18.6215V4.596H17.3435V5.46H18.6215V12.84C18.6215 14.172 18.9635 15.126 20.4935 15.126ZM24.8725 15.162C25.9705 15.162 26.7265 14.406 27.0145 13.56C27.0505 13.884 27.1585 14.55 27.2125 15H28.3825C28.3285 14.622 28.2925 13.47 28.2925 12.93V7.872C28.2925 5.532 27.6085 4.434 25.7545 4.434C23.7565 4.434 22.9465 5.442 22.9285 7.548L24.2245 7.566V7.206C24.2245 5.838 24.8725 5.424 25.6825 5.424C26.6725 5.424 26.9785 6.054 26.9785 7.944V8.682C23.9185 10.05 22.7845 10.752 22.7845 12.84C22.7845 14.136 23.6125 15.162 24.8725 15.162ZM25.2865 14.046C24.6565 14.046 24.0985 13.614 24.0985 12.516C24.0985 11.094 24.9265 10.644 26.9785 9.564V12.804C26.6725 13.38 26.0605 14.046 25.2865 14.046ZM32.8728 18.42C34.8888 18.42 36.3108 17.664 36.3108 16.008C36.3108 14.586 35.3748 13.848 33.7008 13.596L32.0448 13.344C31.4328 13.272 31.1808 13.092 31.1808 12.768C31.1808 12.372 31.5228 11.94 31.8828 11.58C32.1348 11.67 32.5848 11.742 32.9448 11.742C35.0328 11.742 35.8068 10.194 35.8068 8.106C35.8068 7.602 35.6448 6.738 35.4828 6.288C35.7708 5.946 36.6168 5.496 37.1928 5.388L36.8328 4.47L36.5628 4.56C35.9508 4.812 35.3568 5.388 35.1588 5.73C34.7988 5.01 34.1328 4.434 32.9268 4.434C30.9108 4.434 30.0108 6.09 30.0108 8.07C30.0108 9.492 30.3888 10.554 31.3248 11.238C30.5688 11.886 30.0828 12.408 30.0828 13.128C30.0828 13.668 30.4248 14.046 31.2348 14.262C30.3888 14.694 29.5248 15.504 29.5248 16.53C29.5248 17.826 30.8028 18.42 32.8728 18.42ZM32.9448 10.788C31.4328 10.788 31.1988 9.258 31.1988 8.07C31.1988 6.9 31.4868 5.37 32.9448 5.37C34.3848 5.37 34.6548 6.828 34.6548 8.07C34.6548 9.33 34.4748 10.788 32.9448 10.788ZM32.9268 17.358C31.3788 17.358 30.6408 17.016 30.6408 16.206C30.6408 15.396 31.4508 14.82 31.9728 14.442L33.3048 14.622C34.9248 14.874 35.2668 15.324 35.2668 16.026C35.2668 16.962 34.3128 17.358 32.9268 17.358ZM38.0687 15H39.4007V7.008C39.9047 6.18 40.5527 5.802 41.3807 5.802C41.5967 5.802 41.8667 5.856 42.0287 5.91V4.506C41.9207 4.488 41.8667 4.488 41.7947 4.488C41.0027 4.488 40.0667 4.92 39.4007 6.018V4.596H38.0687V15ZM45.0697 15.162C46.1677 15.162 46.9237 14.406 47.2117 13.56C47.2477 13.884 47.3557 14.55 47.4097 15H48.5797C48.5257 14.622 48.4897 13.47 48.4897 12.93V7.872C48.4897 5.532 47.8057 4.434 45.9517 4.434C43.9537 4.434 43.1437 5.442 43.1257 7.548L44.4217 7.566V7.206C44.4217 5.838 45.0697 5.424 45.8797 5.424C46.8697 5.424 47.1757 6.054 47.1757 7.944V8.682C44.1157 10.05 42.9817 10.752 42.9817 12.84C42.9817 14.136 43.8097 15.162 45.0697 15.162ZM45.4837 14.046C44.8537 14.046 44.2957 13.614 44.2957 12.516C44.2957 11.094 45.1237 10.644 47.1757 9.564V12.804C46.8697 13.38 46.2577 14.046 45.4837 14.046ZM50.424 15H51.648V6.378C52.242 5.748 52.962 5.316 53.592 5.316C54.204 5.316 54.636 5.604 54.636 6.828V15H55.878V6.792C55.878 6.648 55.86 6.522 55.842 6.396C56.436 5.748 57.156 5.316 57.804 5.316C58.398 5.316 58.848 5.604 58.848 6.828V15H60.072V6.792C60.072 4.974 59.226 4.416 58.308 4.416C57.354 4.416 56.454 4.884 55.752 5.766C55.482 4.74 54.816 4.416 54.096 4.416C53.196 4.416 52.332 4.848 51.648 5.658V4.596H50.424V15Z" fill="white"/>
</svg>
