<svg width="142" height="21" viewBox="0 0 142 21" fill="none" xmlns="http://www.w3.org/2000/svg">
<path d="M3.29356 3.752H0.365563V0.559999H10.5176V3.752H7.61356V20H3.29356V3.752ZM14.0979 0.559999H18.9939L22.6179 20H18.6579L18.0099 15.896H15.1539L14.4819 20H10.4259L14.0979 0.559999ZM17.6019 13.328L16.5699 5.744L15.5379 13.328H17.6019ZM25.3014 3.752H22.3734V0.559999H32.5254V3.752H29.6214V20H25.3014V3.752ZM35.9889 3.752H33.0609V0.559999H43.2129V3.752H40.3089V20H35.9889V3.752ZM50.3049 20.288C48.2089 20.288 46.7129 19.752 45.8169 18.68C44.9209 17.592 44.4729 15.992 44.4729 13.88V6.656C44.4729 4.544 44.9209 2.96 45.8169 1.904C46.7129 0.831999 48.2089 0.295999 50.3049 0.295999C52.4169 0.295999 53.9209 0.831999 54.8169 1.904C55.7289 2.976 56.1849 4.56 56.1849 6.656V13.88C56.1849 15.992 55.7289 17.592 54.8169 18.68C53.9209 19.752 52.4169 20.288 50.3049 20.288ZM50.3049 17.24C50.9129 17.24 51.3129 17.04 51.5049 16.64C51.6969 16.224 51.7929 15.664 51.7929 14.96V5.6C51.7929 4.88 51.6969 4.32 51.5049 3.92C51.3129 3.52 50.9129 3.32 50.3049 3.32C49.7289 3.32 49.3449 3.528 49.1529 3.944C48.9609 4.344 48.8649 4.896 48.8649 5.6V14.96C48.8649 15.664 48.9529 16.224 49.1289 16.64C49.3049 17.04 49.6969 17.24 50.3049 17.24ZM64.3674 20.288C62.2714 20.288 60.7754 19.752 59.8794 18.68C58.9834 17.592 58.5354 15.992 58.5354 13.88V6.656C58.5354 4.544 58.9834 2.96 59.8794 1.904C60.7754 0.831999 62.2714 0.295999 64.3674 0.295999C66.4794 0.295999 67.9834 0.831999 68.8794 1.904C69.7914 2.976 70.2474 4.56 70.2474 6.656V13.88C70.2474 15.992 69.7914 17.592 68.8794 18.68C67.9834 19.752 66.4794 20.288 64.3674 20.288ZM64.3674 17.24C64.9754 17.24 65.3754 17.04 65.5674 16.64C65.7594 16.224 65.8554 15.664 65.8554 14.96V5.6C65.8554 4.88 65.7594 4.32 65.5674 3.92C65.3754 3.52 64.9754 3.32 64.3674 3.32C63.7914 3.32 63.4074 3.528 63.2154 3.944C63.0234 4.344 62.9274 4.896 62.9274 5.6V14.96C62.9274 15.664 63.0154 16.224 63.1914 16.64C63.3674 17.04 63.7594 17.24 64.3674 17.24ZM84.5705 20.288C82.4585 20.288 80.9545 19.736 80.0585 18.632C79.1785 17.512 78.7385 15.904 78.7385 13.808V6.8C78.7385 4.656 79.1785 3.04 80.0585 1.952C80.9385 0.847999 82.4425 0.295999 84.5705 0.295999C86.6025 0.295999 88.0425 0.783999 88.8905 1.76C89.7385 2.736 90.1625 4.12 90.1625 5.912V7.592H85.9625V5.648C85.9625 4.896 85.8825 4.32 85.7225 3.92C85.5625 3.52 85.1785 3.32 84.5705 3.32C83.9625 3.32 83.5625 3.536 83.3705 3.968C83.1785 4.384 83.0825 4.968 83.0825 5.72V14.864C83.0825 15.632 83.1785 16.224 83.3705 16.64C83.5785 17.04 83.9785 17.24 84.5705 17.24C85.1625 17.24 85.5385 17.04 85.6985 16.64C85.8745 16.224 85.9625 15.632 85.9625 14.864V12.824H90.1625V14.504C90.1625 16.328 89.7385 17.752 88.8905 18.776C88.0425 19.784 86.6025 20.288 84.5705 20.288ZM92.5259 0.559999H96.8219V17.096H101.286V20H92.5259V0.559999ZM108.408 20.288C106.952 20.288 105.8 20.056 104.952 19.592C104.104 19.112 103.504 18.416 103.152 17.504C102.816 16.576 102.648 15.4 102.648 13.976V0.559999H106.896V14.624C106.896 15.408 106.992 16.032 107.184 16.496C107.392 16.96 107.8 17.192 108.408 17.192C109.016 17.192 109.416 16.96 109.608 16.496C109.8 16.032 109.896 15.408 109.896 14.624V0.559999H114.168V13.976C114.168 15.4 113.992 16.576 113.64 17.504C113.288 18.416 112.688 19.112 111.84 19.592C111.008 20.056 109.864 20.288 108.408 20.288ZM116.901 0.559999H121.965C123.229 0.559999 124.301 0.695999 125.181 0.967999C126.077 1.224 126.797 1.728 127.341 2.48C127.885 3.232 128.157 4.288 128.157 5.648C128.157 6.8 127.909 7.696 127.413 8.336C126.917 8.976 126.213 9.384 125.301 9.56C126.421 9.704 127.277 10.176 127.869 10.976C128.461 11.776 128.757 12.864 128.757 14.24C128.757 18.08 126.797 20 122.877 20H116.901V0.559999ZM122.037 8.336C122.949 8.336 123.565 8.128 123.885 7.712C124.221 7.296 124.389 6.648 124.389 5.768C124.389 5 124.181 4.424 123.765 4.04C123.349 3.64 122.741 3.44 121.941 3.44H121.197V8.336H122.037ZM122.109 17C123.021 17 123.661 16.776 124.029 16.328C124.413 15.864 124.605 15.144 124.605 14.168C124.605 13.064 124.413 12.288 124.029 11.84C123.661 11.392 123.013 11.168 122.085 11.168H121.197V17H122.109ZM136.17 20.288C134.314 20.288 132.93 19.8 132.018 18.824C131.122 17.832 130.642 16.264 130.578 14.12L134.25 13.568C134.266 14.8 134.41 15.688 134.682 16.232C134.97 16.76 135.394 17.024 135.954 17.024C136.674 17.024 137.034 16.552 137.034 15.608C137.034 14.856 136.858 14.208 136.506 13.664C136.17 13.12 135.634 12.536 134.898 11.912L133.218 10.448C132.386 9.744 131.738 9 131.274 8.216C130.826 7.416 130.602 6.472 130.602 5.384C130.602 3.752 131.082 2.496 132.042 1.616C133.018 0.735999 134.354 0.295999 136.05 0.295999C137.89 0.295999 139.138 0.831999 139.794 1.904C140.466 2.976 140.826 4.28 140.874 5.816L137.178 6.272C137.146 5.264 137.05 4.544 136.89 4.112C136.746 3.664 136.418 3.44 135.906 3.44C135.538 3.44 135.25 3.6 135.042 3.92C134.85 4.224 134.754 4.568 134.754 4.952C134.754 5.608 134.898 6.16 135.186 6.608C135.49 7.056 135.97 7.568 136.626 8.144L138.234 9.56C139.194 10.376 139.938 11.24 140.466 12.152C140.994 13.064 141.258 14.144 141.258 15.392C141.258 16.304 141.042 17.136 140.61 17.888C140.194 18.624 139.602 19.208 138.834 19.64C138.066 20.072 137.178 20.288 136.17 20.288Z" fill="white"/>
</svg>
