<svg width="48" height="16" viewBox="0 0 48 16" fill="none" xmlns="http://www.w3.org/2000/svg">
<path d="M4.662 15.18C7.38 15.18 8.118 13.38 8.118 10.824V9.96H6.822V10.914C6.822 12.822 6.498 14.082 4.68 14.082C2.88 14.082 2.358 13.002 2.358 10.842V4.632C2.358 2.688 2.7 1.374 4.68 1.374C6.498 1.374 6.822 2.562 6.822 4.452V5.298H8.118V4.416C8.118 1.878 7.272 0.276 4.662 0.276C1.764 0.276 0.972 2.148 0.972 4.83V10.626C0.972 13.164 1.71 15.18 4.662 15.18ZM12.5644 15.162C14.7424 15.162 15.3544 13.758 15.3544 11.238V8.358C15.3544 5.838 14.7424 4.434 12.5644 4.434C10.4044 4.434 9.79242 5.856 9.79242 8.358V11.238C9.79242 13.758 10.4044 15.162 12.5644 15.162ZM12.5644 14.172C11.2144 14.172 11.1244 13.002 11.1244 11.31V8.286C11.1244 6.594 11.2144 5.424 12.5644 5.424C13.9324 5.424 14.0224 6.594 14.0224 8.286V11.31C14.0224 13.002 13.9324 14.172 12.5644 14.172ZM17.1799 15H18.4939V6.432C19.0339 5.874 19.6819 5.46 20.2939 5.46C20.9599 5.46 21.2839 5.856 21.2839 6.936V15H22.5979V6.648C22.5979 5.244 22.0219 4.434 20.9959 4.434C20.0239 4.434 19.1599 4.956 18.4939 5.676V4.596H17.1799V15ZM27.0111 15.126C27.3711 15.126 27.7491 15.09 28.1271 15.018V14.01C27.8751 14.064 27.5871 14.1 27.3711 14.1C26.5971 14.1 26.4531 13.722 26.4531 12.714V5.46H28.1811V4.596H26.4531V1.374H25.1391V4.596H23.8611V5.46H25.1391V12.84C25.1391 14.172 25.4811 15.126 27.0111 15.126ZM31.39 15.162C32.488 15.162 33.244 14.406 33.532 13.56C33.568 13.884 33.676 14.55 33.73 15H34.9C34.846 14.622 34.81 13.47 34.81 12.93V7.872C34.81 5.532 34.126 4.434 32.272 4.434C30.274 4.434 29.464 5.442 29.446 7.548L30.742 7.566V7.206C30.742 5.838 31.39 5.424 32.2 5.424C33.19 5.424 33.496 6.054 33.496 7.944V8.682C30.436 10.05 29.302 10.752 29.302 12.84C29.302 14.136 30.13 15.162 31.39 15.162ZM31.804 14.046C31.174 14.046 30.616 13.614 30.616 12.516C30.616 11.094 31.444 10.644 33.496 9.564V12.804C33.19 13.38 32.578 14.046 31.804 14.046ZM39.3363 15.162C41.5863 15.162 41.9823 13.704 41.9823 11.598V11.094H40.7583V11.67C40.7583 13.362 40.5963 14.172 39.3543 14.172C38.1663 14.172 37.8603 13.416 37.8603 11.328V8.412C37.8603 6.216 38.0943 5.424 39.3363 5.424C40.3803 5.424 40.7583 5.946 40.7583 7.764V8.268H41.9823V7.764C41.9823 5.784 41.5323 4.434 39.3363 4.434C37.1043 4.434 36.5463 5.748 36.5463 8.628V11.058C36.5463 13.416 36.9063 15.162 39.3363 15.162ZM46.2064 15.126C46.5664 15.126 46.9444 15.09 47.3224 15.018V14.01C47.0704 14.064 46.7824 14.1 46.5664 14.1C45.7924 14.1 45.6484 13.722 45.6484 12.714V5.46H47.3764V4.596H45.6484V1.374H44.3344V4.596H43.0564V5.46H44.3344V12.84C44.3344 14.172 44.6764 15.126 46.2064 15.126Z" fill="white"/>
</svg>
