<svg width="56" height="16" viewBox="0 0 56 16" fill="none" xmlns="http://www.w3.org/2000/svg">
<path d="M0.0963594 15H1.46436V7.944H4.68636V6.936H1.46436V1.446H5.33436V0.419999H0.0963594V15ZM8.48183 15.162C9.57983 15.162 10.3358 14.406 10.6238 13.56C10.6598 13.884 10.7678 14.55 10.8218 15H11.9918C11.9378 14.622 11.9018 13.47 11.9018 12.93V7.872C11.9018 5.532 11.2178 4.434 9.36383 4.434C7.36583 4.434 6.55583 5.442 6.53783 7.548L7.83383 7.566V7.206C7.83383 5.838 8.48183 5.424 9.29183 5.424C10.2818 5.424 10.5878 6.054 10.5878 7.944V8.682C7.52783 10.05 6.39383 10.752 6.39383 12.84C6.39383 14.136 7.22183 15.162 8.48183 15.162ZM8.89583 14.046C8.26583 14.046 7.70783 13.614 7.70783 12.516C7.70783 11.094 8.53583 10.644 10.5878 9.564V12.804C10.2818 13.38 9.66983 14.046 8.89583 14.046ZM16.4281 15.162C18.6781 15.162 19.0741 13.704 19.0741 11.598V11.094H17.8501V11.67C17.8501 13.362 17.6881 14.172 16.4461 14.172C15.2581 14.172 14.9521 13.416 14.9521 11.328V8.412C14.9521 6.216 15.1861 5.424 16.4281 5.424C17.4721 5.424 17.8501 5.946 17.8501 7.764V8.268H19.0741V7.764C19.0741 5.784 18.6241 4.434 16.4281 4.434C14.1961 4.434 13.6381 5.748 13.6381 8.628V11.058C13.6381 13.416 13.9981 15.162 16.4281 15.162ZM23.4422 15.162C25.4582 15.162 26.1422 13.92 26.1422 12.03V11.454H24.8642V12.174C24.8642 13.812 24.2522 14.172 23.4422 14.172C22.3802 14.172 21.9482 13.524 21.9482 11.49V9.672H26.1602V8.736C26.1602 5.802 25.6382 4.434 23.4602 4.434C21.5342 4.434 20.6342 5.388 20.6342 8.466V11.094C20.6342 14.118 21.4802 15.162 23.4422 15.162ZM21.9482 8.916V8.214C21.9482 6 22.3622 5.424 23.4422 5.424C24.7202 5.424 24.8642 6.414 24.8642 8.052V8.916H21.9482ZM31.1198 15.162C33.0638 15.162 33.6218 13.434 33.6218 10.77V8.574C33.6218 6.486 33.2618 4.434 31.2458 4.434C30.3278 4.434 29.6618 4.938 29.2658 5.46V0.419999H27.9518V15H29.2658V14.172C29.6618 14.64 30.2738 15.162 31.1198 15.162ZM30.8858 14.118C30.2018 14.118 29.6438 13.776 29.2658 13.362V6.27C29.6258 5.91 30.2018 5.46 30.8678 5.46C32.0918 5.46 32.2898 6.54 32.2898 8.574V10.806C32.2898 12.966 32.0918 14.118 30.8858 14.118ZM37.9961 15.162C40.1741 15.162 40.7861 13.758 40.7861 11.238V8.358C40.7861 5.838 40.1741 4.434 37.9961 4.434C35.8361 4.434 35.2241 5.856 35.2241 8.358V11.238C35.2241 13.758 35.8361 15.162 37.9961 15.162ZM37.9961 14.172C36.6461 14.172 36.5561 13.002 36.5561 11.31V8.286C36.5561 6.594 36.6461 5.424 37.9961 5.424C39.3641 5.424 39.4541 6.594 39.4541 8.286V11.31C39.4541 13.002 39.3641 14.172 37.9961 14.172ZM45.1855 15.162C47.3635 15.162 47.9755 13.758 47.9755 11.238V8.358C47.9755 5.838 47.3635 4.434 45.1855 4.434C43.0255 4.434 42.4135 5.856 42.4135 8.358V11.238C42.4135 13.758 43.0255 15.162 45.1855 15.162ZM45.1855 14.172C43.8355 14.172 43.7455 13.002 43.7455 11.31V8.286C43.7455 6.594 43.8355 5.424 45.1855 5.424C46.5535 5.424 46.6435 6.594 46.6435 8.286V11.31C46.6435 13.002 46.5535 14.172 45.1855 14.172ZM49.819 15H51.133V11.058L52.357 9.348L54.553 15H55.885L53.365 8.61L55.993 4.596H54.607L51.133 9.672V0.419999H49.819V15Z" fill="white"/>
</svg>
