<svg width="323" height="133" viewBox="0 0 323 133" fill="none" xmlns="http://www.w3.org/2000/svg">
<line x1="65.8545" y1="113.65" x2="259.236" y2="113.65" stroke="white"/>
<line x1="177.702" y1="128.311" x2="197.563" y2="128.311" stroke="white"/>
<line x1="126.482" y1="128.311" x2="146.343" y2="128.311" stroke="white"/>
<ellipse cx="162.023" cy="128.811" rx="4.18123" ry="4.18898" fill="white"/>
<path d="M15.3198 31.38H7.99984V23.4H33.3798V31.38H26.1198V72H15.3198V31.38ZM42.3306 23.4H54.5706L63.6306 72H53.7306L52.1106 61.74H44.9706L43.2906 72H33.1506L42.3306 23.4ZM51.0906 55.32L48.5106 36.36L45.9306 55.32H51.0906ZM70.3394 31.38H63.0194V23.4H88.3994V31.38H81.1394V72H70.3394V31.38ZM97.0581 31.38H89.7381V23.4H115.118V31.38H107.858V72H97.0581V31.38ZM132.848 72.72C127.608 72.72 123.868 71.38 121.628 68.7C119.388 65.98 118.268 61.98 118.268 56.7V38.64C118.268 33.36 119.388 29.4 121.628 26.76C123.868 24.08 127.608 22.74 132.848 22.74C138.128 22.74 141.888 24.08 144.128 26.76C146.408 29.44 147.548 33.4 147.548 38.64V56.7C147.548 61.98 146.408 65.98 144.128 68.7C141.888 71.38 138.128 72.72 132.848 72.72ZM132.848 65.1C134.368 65.1 135.368 64.6 135.848 63.6C136.328 62.56 136.568 61.16 136.568 59.4V36C136.568 34.2 136.328 32.8 135.848 31.8C135.368 30.8 134.368 30.3 132.848 30.3C131.408 30.3 130.448 30.82 129.968 31.86C129.488 32.86 129.248 34.24 129.248 36V59.4C129.248 61.16 129.468 62.56 129.908 63.6C130.348 64.6 131.328 65.1 132.848 65.1ZM168.004 72.72C162.764 72.72 159.024 71.38 156.784 68.7C154.544 65.98 153.424 61.98 153.424 56.7V38.64C153.424 33.36 154.544 29.4 156.784 26.76C159.024 24.08 162.764 22.74 168.004 22.74C173.284 22.74 177.044 24.08 179.284 26.76C181.564 29.44 182.704 33.4 182.704 38.64V56.7C182.704 61.98 181.564 65.98 179.284 68.7C177.044 71.38 173.284 72.72 168.004 72.72ZM168.004 65.1C169.524 65.1 170.524 64.6 171.004 63.6C171.484 62.56 171.724 61.16 171.724 59.4V36C171.724 34.2 171.484 32.8 171.004 31.8C170.524 30.8 169.524 30.3 168.004 30.3C166.564 30.3 165.604 30.82 165.124 31.86C164.644 32.86 164.404 34.24 164.404 36V59.4C164.404 61.16 164.624 62.56 165.064 63.6C165.504 64.6 166.484 65.1 168.004 65.1ZM203.161 72.72C197.881 72.72 194.121 71.34 191.881 68.58C189.681 65.78 188.581 61.76 188.581 56.52V39C188.581 33.64 189.681 29.6 191.881 26.88C194.081 24.12 197.841 22.74 203.161 22.74C208.241 22.74 211.841 23.96 213.961 26.4C216.081 28.84 217.141 32.3 217.141 36.78V40.98H206.641V36.12C206.641 34.24 206.441 32.8 206.041 31.8C205.641 30.8 204.681 30.3 203.161 30.3C201.641 30.3 200.641 30.84 200.161 31.92C199.681 32.96 199.441 34.42 199.441 36.3V59.16C199.441 61.08 199.681 62.56 200.161 63.6C200.681 64.6 201.681 65.1 203.161 65.1C204.641 65.1 205.581 64.6 205.981 63.6C206.421 62.56 206.641 61.08 206.641 59.16V54.06H217.141V58.26C217.141 62.82 216.081 66.38 213.961 68.94C211.841 71.46 208.241 72.72 203.161 72.72ZM223.049 23.4H233.789V64.74H244.949V72H223.049V23.4ZM262.753 72.72C259.113 72.72 256.233 72.14 254.113 70.98C251.993 69.78 250.493 68.04 249.613 65.76C248.773 63.44 248.353 60.5 248.353 56.94V23.4H258.973V58.56C258.973 60.52 259.213 62.08 259.693 63.24C260.213 64.4 261.233 64.98 262.753 64.98C264.273 64.98 265.273 64.4 265.753 63.24C266.233 62.08 266.473 60.52 266.473 58.56V23.4H277.153V56.94C277.153 60.5 276.713 63.44 275.833 65.76C274.953 68.04 273.453 69.78 271.333 70.98C269.253 72.14 266.393 72.72 262.753 72.72ZM283.987 23.4H296.647C299.807 23.4 302.487 23.74 304.687 24.42C306.927 25.06 308.727 26.32 310.087 28.2C311.447 30.08 312.127 32.72 312.127 36.12C312.127 39 311.507 41.24 310.267 42.84C309.027 44.44 307.267 45.46 304.987 45.9C307.787 46.26 309.927 47.44 311.407 49.44C312.887 51.44 313.627 54.16 313.627 57.6C313.627 67.2 308.727 72 298.927 72H283.987V23.4ZM296.827 42.84C299.107 42.84 300.647 42.32 301.447 41.28C302.287 40.24 302.707 38.62 302.707 36.42C302.707 34.5 302.187 33.06 301.147 32.1C300.107 31.1 298.587 30.6 296.587 30.6H294.727V42.84H296.827ZM297.007 64.5C299.287 64.5 300.887 63.94 301.807 62.82C302.767 61.66 303.247 59.86 303.247 57.42C303.247 54.66 302.767 52.72 301.807 51.6C300.887 50.48 299.267 49.92 296.947 49.92H294.727V64.5H297.007Z" fill="white"/>
</svg>
