<svg width="34" height="16" viewBox="0 0 34 16" fill="none" xmlns="http://www.w3.org/2000/svg">
<path d="M0.26 15H1.646V7.908H6.236V15H7.604V0.419999H6.236V6.882H1.646V0.419999H0.26V15ZM12.4609 15.162C14.6389 15.162 15.2509 13.758 15.2509 11.238V8.358C15.2509 5.838 14.6389 4.434 12.4609 4.434C10.3009 4.434 9.68891 5.856 9.68891 8.358V11.238C9.68891 13.758 10.3009 15.162 12.4609 15.162ZM12.4609 14.172C11.1109 14.172 11.0209 13.002 11.0209 11.31V8.286C11.0209 6.594 11.1109 5.424 12.4609 5.424C13.8289 5.424 13.9189 6.594 13.9189 8.286V11.31C13.9189 13.002 13.8289 14.172 12.4609 14.172ZM17.0764 15H18.3004V6.378C18.8944 5.748 19.6144 5.316 20.2444 5.316C20.8564 5.316 21.2884 5.604 21.2884 6.828V15H22.5304V6.792C22.5304 6.648 22.5124 6.522 22.4944 6.396C23.0884 5.748 23.8084 5.316 24.4564 5.316C25.0504 5.316 25.5004 5.604 25.5004 6.828V15H26.7244V6.792C26.7244 4.974 25.8784 4.416 24.9604 4.416C24.0064 4.416 23.1064 4.884 22.4044 5.766C22.1344 4.74 21.4684 4.416 20.7484 4.416C19.8484 4.416 18.9844 4.848 18.3004 5.658V4.596H17.0764V15ZM31.2703 15.162C33.2863 15.162 33.9703 13.92 33.9703 12.03V11.454H32.6923V12.174C32.6923 13.812 32.0803 14.172 31.2703 14.172C30.2083 14.172 29.7763 13.524 29.7763 11.49V9.672H33.9883V8.736C33.9883 5.802 33.4663 4.434 31.2883 4.434C29.3623 4.434 28.4623 5.388 28.4623 8.466V11.094C28.4623 14.118 29.3083 15.162 31.2703 15.162ZM29.7763 8.916V8.214C29.7763 6 30.1903 5.424 31.2703 5.424C32.5483 5.424 32.6923 6.414 32.6923 8.052V8.916H29.7763Z" fill="white"/>
</svg>
