<svg width="39" height="16" viewBox="0 0 39 16" fill="none" xmlns="http://www.w3.org/2000/svg">
<path d="M3.096 15H4.212L6.498 2.976L8.82 15H9.882L12.24 0.419999H11.088L9.306 12.282L7.056 0.635999H5.922L3.726 12.264L1.8 0.419999H0.63L3.096 15ZM16.2734 15.162C18.4514 15.162 19.0634 13.758 19.0634 11.238V8.358C19.0634 5.838 18.4514 4.434 16.2734 4.434C14.1134 4.434 13.5014 5.856 13.5014 8.358V11.238C13.5014 13.758 14.1134 15.162 16.2734 15.162ZM16.2734 14.172C14.9234 14.172 14.8334 13.002 14.8334 11.31V8.286C14.8334 6.594 14.9234 5.424 16.2734 5.424C17.6414 5.424 17.7314 6.594 17.7314 8.286V11.31C17.7314 13.002 17.6414 14.172 16.2734 14.172ZM20.9789 15H22.3109V7.008C22.8149 6.18 23.4629 5.802 24.2909 5.802C24.5069 5.802 24.7769 5.856 24.9389 5.91V4.506C24.8309 4.488 24.7769 4.488 24.7049 4.488C23.9129 4.488 22.9769 4.92 22.3109 6.018V4.596H20.9789V15ZM26.2506 15H27.5646V11.058L28.7886 9.348L30.9846 15H32.3166L29.7966 8.61L32.4246 4.596H31.0386L27.5646 9.672V0.419999H26.2506V15ZM35.8156 15.162C37.4176 15.162 38.4796 14.28 38.4796 12.66C38.4796 11.22 37.5976 10.392 36.7516 9.636L35.2756 8.322C34.6276 7.728 34.4296 7.314 34.4296 6.684C34.4296 5.892 34.9516 5.424 35.7616 5.424C36.6616 5.424 37.1656 6.072 37.2376 7.476L38.1736 7.17C38.0836 5.568 37.2916 4.434 35.7076 4.434C34.2136 4.434 33.2236 5.28 33.2236 6.774C33.2236 7.89 33.7096 8.61 34.6456 9.384L36.0676 10.608C36.9496 11.346 37.3276 12.012 37.3276 12.696C37.3276 13.632 36.8056 14.172 35.9056 14.172C34.8436 14.172 34.2316 13.47 34.0876 11.868L32.9896 12.21C33.1336 14.01 34.1596 15.162 35.8156 15.162Z" fill="white"/>
</svg>
