<svg width="58" height="24" viewBox="0 0 58 24" fill="none" xmlns="http://www.w3.org/2000/svg">
<g filter="url(#filter0_d)">
<path d="M7.78359 15H9.11559V10.158L12.3196 0.419999H10.9696L8.44959 8.52L5.82159 0.419999H4.48959L7.78359 10.158V15ZM15.9218 15.162C18.0998 15.162 18.7118 13.758 18.7118 11.238V8.358C18.7118 5.838 18.0998 4.434 15.9218 4.434C13.7618 4.434 13.1498 5.856 13.1498 8.358V11.238C13.1498 13.758 13.7618 15.162 15.9218 15.162ZM15.9218 14.172C14.5718 14.172 14.4818 13.002 14.4818 11.31V8.286C14.4818 6.594 14.5718 5.424 15.9218 5.424C17.2898 5.424 17.3798 6.594 17.3798 8.286V11.31C17.3798 13.002 17.2898 14.172 15.9218 14.172ZM22.0673 15.162C23.0573 15.162 23.9393 14.622 24.6053 13.848V15H25.9193V4.596H24.6053V13.092C24.0653 13.686 23.3993 14.118 22.7693 14.118C22.1033 14.118 21.7793 13.74 21.7793 12.66V4.596H20.4473V12.948C20.4473 14.352 21.0053 15.162 22.0673 15.162ZM30.4213 15.126C30.7813 15.126 31.1593 15.09 31.5373 15.018V14.01C31.2853 14.064 30.9973 14.1 30.7813 14.1C30.0073 14.1 29.8633 13.722 29.8633 12.714V5.46H31.5913V4.596H29.8633V1.374H28.5493V4.596H27.2713V5.46H28.5493V12.84C28.5493 14.172 28.8913 15.126 30.4213 15.126ZM34.5302 15.162C35.5202 15.162 36.4022 14.622 37.0682 13.848V15H38.3822V4.596H37.0682V13.092C36.5282 13.686 35.8622 14.118 35.2322 14.118C34.5662 14.118 34.2422 13.74 34.2422 12.66V4.596H32.9102V12.948C32.9102 14.352 33.4682 15.162 34.5302 15.162ZM43.6042 15.162C45.5482 15.162 46.1062 13.434 46.1062 10.77V8.574C46.1062 6.486 45.7462 4.434 43.7302 4.434C42.8122 4.434 42.1462 4.938 41.7502 5.46V0.419999H40.4362V15H41.7502V14.172C42.1462 14.64 42.7582 15.162 43.6042 15.162ZM43.3702 14.118C42.6862 14.118 42.1282 13.776 41.7502 13.362V6.27C42.1102 5.91 42.6862 5.46 43.3522 5.46C44.5762 5.46 44.7742 6.54 44.7742 8.574V10.806C44.7742 12.966 44.5762 14.118 43.3702 14.118ZM50.5164 15.162C52.5324 15.162 53.2164 13.92 53.2164 12.03V11.454H51.9384V12.174C51.9384 13.812 51.3264 14.172 50.5164 14.172C49.4544 14.172 49.0224 13.524 49.0224 11.49V9.672H53.2344V8.736C53.2344 5.802 52.7124 4.434 50.5344 4.434C48.6084 4.434 47.7084 5.388 47.7084 8.466V11.094C47.7084 14.118 48.5544 15.162 50.5164 15.162ZM49.0224 8.916V8.214C49.0224 6 49.4364 5.424 50.5164 5.424C51.7944 5.424 51.9384 6.414 51.9384 8.052V8.916H49.0224Z" fill="white"/>
</g>
<defs>
<filter id="filter0_d" x="0.489624" y="0.419922" width="56.7448" height="22.742" filterUnits="userSpaceOnUse" color-interpolation-filters="sRGB">
<feFlood flood-opacity="0" result="BackgroundImageFix"/>
<feColorMatrix in="SourceAlpha" type="matrix" values="0 0 0 0 0 0 0 0 0 0 0 0 0 0 0 0 0 0 127 0"/>
<feOffset dy="4"/>
<feGaussianBlur stdDeviation="2"/>
<feColorMatrix type="matrix" values="0 0 0 0 0 0 0 0 0 0 0 0 0 0 0 0 0 0 0.25 0"/>
<feBlend mode="normal" in2="BackgroundImageFix" result="effect1_dropShadow"/>
<feBlend mode="normal" in="SourceGraphic" in2="effect1_dropShadow" result="shape"/>
</filter>
</defs>
</svg>
