<svg width="44" height="16" viewBox="0 0 44 16" fill="none" xmlns="http://www.w3.org/2000/svg">
<path d="M3.07995 15H4.44795V1.482H7.12995V0.419999H0.325953V1.482H3.07995V15ZM9.70508 15H11.0371L12.6571 6.54L14.3311 15H15.5551L17.2471 4.596H16.1131L14.8711 13.254L13.2151 4.596H12.0811L10.4431 13.29L9.14708 4.596H8.01308L9.70508 15ZM18.943 3.156H20.257V1.374H18.943V3.156ZM18.943 15H20.257V4.596H18.943V15ZM24.9388 15.126C25.2988 15.126 25.6768 15.09 26.0548 15.018V14.01C25.8028 14.064 25.5148 14.1 25.2988 14.1C24.5248 14.1 24.3808 13.722 24.3808 12.714V5.46H26.1088V4.596H24.3808V1.374H23.0668V4.596H21.7888V5.46H23.0668V12.84C23.0668 14.172 23.4088 15.126 24.9388 15.126ZM29.9838 15.126C30.3438 15.126 30.7218 15.09 31.0998 15.018V14.01C30.8478 14.064 30.5598 14.1 30.3438 14.1C29.5698 14.1 29.4258 13.722 29.4258 12.714V5.46H31.1538V4.596H29.4258V1.374H28.1118V4.596H26.8338V5.46H28.1118V12.84C28.1118 14.172 28.4538 15.126 29.9838 15.126ZM35.1727 15.162C37.1887 15.162 37.8727 13.92 37.8727 12.03V11.454H36.5947V12.174C36.5947 13.812 35.9827 14.172 35.1727 14.172C34.1107 14.172 33.6787 13.524 33.6787 11.49V9.672H37.8907V8.736C37.8907 5.802 37.3687 4.434 35.1907 4.434C33.2647 4.434 32.3647 5.388 32.3647 8.466V11.094C32.3647 14.118 33.2107 15.162 35.1727 15.162ZM33.6787 8.916V8.214C33.6787 6 34.0927 5.424 35.1727 5.424C36.4507 5.424 36.5947 6.414 36.5947 8.052V8.916H33.6787ZM39.7543 15H41.0863V7.008C41.5903 6.18 42.2383 5.802 43.0663 5.802C43.2822 5.802 43.5523 5.856 43.7143 5.91V4.506C43.6063 4.488 43.5523 4.488 43.4803 4.488C42.6883 4.488 41.7523 4.92 41.0863 6.018V4.596H39.7543V15Z" fill="white"/>
</svg>
