<svg width="56" height="16" viewBox="0 0 56 16" fill="none" xmlns="http://www.w3.org/2000/svg">
<path d="M0.486 15H1.818L2.556 11.094H6.03L6.75 15H8.1L5.004 0.419999H3.564L0.486 15ZM2.754 10.104L4.302 2.238L5.85 10.104H2.754ZM12.7721 15.162C14.7161 15.162 15.2741 13.434 15.2741 10.77V8.574C15.2741 6.486 14.9141 4.434 12.8981 4.434C11.9801 4.434 11.3141 4.938 10.9181 5.46V0.419999H9.60413V15H10.9181V14.172C11.3141 14.64 11.9261 15.162 12.7721 15.162ZM12.5381 14.118C11.8541 14.118 11.2961 13.776 10.9181 13.362V6.27C11.2781 5.91 11.8541 5.46 12.5201 5.46C13.7441 5.46 13.9421 6.54 13.9421 8.574V10.806C13.9421 12.966 13.7441 14.118 12.5381 14.118ZM19.6484 15.162C21.8264 15.162 22.4384 13.758 22.4384 11.238V8.358C22.4384 5.838 21.8264 4.434 19.6484 4.434C17.4884 4.434 16.8764 5.856 16.8764 8.358V11.238C16.8764 13.758 17.4884 15.162 19.6484 15.162ZM19.6484 14.172C18.2984 14.172 18.2084 13.002 18.2084 11.31V8.286C18.2084 6.594 18.2984 5.424 19.6484 5.424C21.0164 5.424 21.1064 6.594 21.1064 8.286V11.31C21.1064 13.002 21.0164 14.172 19.6484 14.172ZM25.7939 15.162C26.7839 15.162 27.6659 14.622 28.3319 13.848V15H29.6459V4.596H28.3319V13.092C27.7919 13.686 27.1259 14.118 26.4959 14.118C25.8299 14.118 25.5059 13.74 25.5059 12.66V4.596H24.1739V12.948C24.1739 14.352 24.7319 15.162 25.7939 15.162ZM34.1478 15.126C34.5078 15.126 34.8858 15.09 35.2638 15.018V14.01C35.0118 14.064 34.7238 14.1 34.5078 14.1C33.7338 14.1 33.5898 13.722 33.5898 12.714V5.46H35.3178V4.596H33.5898V1.374H32.2758V4.596H30.9978V5.46H32.2758V12.84C32.2758 14.172 32.6178 15.126 34.1478 15.126ZM44.2346 15.18C47.1146 15.18 47.9426 13.452 47.9426 11.022V0.419999H46.6286V11.058C46.6286 12.768 46.1066 14.082 44.2346 14.082C42.2726 14.082 41.8406 12.768 41.8406 11.058V0.419999H40.5086V11.022C40.5086 13.452 41.2466 15.18 44.2346 15.18ZM52.4445 15.162C54.0465 15.162 55.1085 14.28 55.1085 12.66C55.1085 11.22 54.2265 10.392 53.3805 9.636L51.9045 8.322C51.2565 7.728 51.0585 7.314 51.0585 6.684C51.0585 5.892 51.5805 5.424 52.3905 5.424C53.2905 5.424 53.7945 6.072 53.8665 7.476L54.8025 7.17C54.7125 5.568 53.9205 4.434 52.3365 4.434C50.8425 4.434 49.8525 5.28 49.8525 6.774C49.8525 7.89 50.3385 8.61 51.2745 9.384L52.6965 10.608C53.5785 11.346 53.9565 12.012 53.9565 12.696C53.9565 13.632 53.4345 14.172 52.5345 14.172C51.4725 14.172 50.8605 13.47 50.7165 11.868L49.6185 12.21C49.7625 14.01 50.7885 15.162 52.4445 15.162Z" fill="white"/>
</svg>
